<svg viewBox="0 0 224.12 128.94" xmlns="http://www.w3.org/2000/svg" xmlns:xlink="http://www.w3.org/1999/xlink"><clipPath id="a"><rect height="30.1" rx="2.01" transform="matrix(.0921968 .9957408 -.9957408 .0921968 114.110267 3.120034)" width="56.76" x="26.96" y="49.09"/></clipPath><linearGradient id="b" gradientTransform="matrix(0 1 -.43 0 646.91 -3255.6)" gradientUnits="userSpaceOnUse" x1="3310" x2="3310" y1="1080.62" y2="1620.42"><stop offset=".42" stop-color="#d7e6f1" stop-opacity=".8"/><stop offset=".43" stop-color="#d7e6f1" stop-opacity=".76"/><stop offset=".5" stop-color="#d7e6f1" stop-opacity=".44"/><stop offset=".57" stop-color="#d7e6f1" stop-opacity=".2"/><stop offset=".61" stop-color="#d7e6f1" stop-opacity=".06"/><stop offset=".64" stop-color="#d7e6f1" stop-opacity="0"/></linearGradient><linearGradient id="c" gradientTransform="matrix(0 1 -.43 0 655.42 -3258.74)" x1="3322.39" x2="3322.39" xlink:href="#b" y1="1081.23" y2="1621.03"/><mask id="d" height="13.45" maskUnits="userSpaceOnUse" width="15.2" x="24.36" y="85.82"><path d="m25.25 93.92 6-5.87c1.11-1.09 2.77-1.47 3.68-.84l4.49 3.12c.22.15.18.48-.08.73l-7.46 7.32a2.48 2.48 0 0 1 -2.88.62l-4.31-2.9c-.69-.48-.25-1.38.56-2.18z" fill="#f08867"/></mask><clipPath id="e"><path d="m125.66 29.14h17.97v20.77h-17.97z"/></clipPath><clipPath id="f"><path d="m131.24 37.59h1.04v10.98h-1.04z"/></clipPath><clipPath id="g"><path d="m132.9 38.55h1.04v10.98h-1.04z"/></clipPath><clipPath id="h"><path d="m129.59 36.63h1.04v10.98h-1.04z"/></clipPath><clipPath id="i"><path d="m127.94 35.67h1.04v10.98h-1.04z"/></clipPath><clipPath id="j"><path d="m126.3 34.74h1.04v10.96h-1.04z"/></clipPath><clipPath id="k"><path d="m126.3 29.52h10.03v5.77h-10.03z"/></clipPath><clipPath id="l"><path d="m127.94 30.44h10.05v5.81h-10.05z"/></clipPath><clipPath id="m"><path d="m129.59 31.41h10.05v5.81h-10.05z"/></clipPath><clipPath id="n"><path d="m131.24 32.36h10.05v5.8h-10.05z"/></clipPath><clipPath id="o"><path d="m132.89 33.32h10.06v5.81h-10.06z"/></clipPath><clipPath id="p"><path clip-rule="evenodd" d="m117 58.05h-30.88v-40.31h67.93v40.31z"/></clipPath><linearGradient id="q" gradientTransform="matrix(0 1 -.43 0 835.64 -3434.93)" x1="3469.68" x2="3469.68" xlink:href="#b" y1="1285.08" y2="1920.4"/><linearGradient id="r" gradientTransform="matrix(0 1 -.43 0 844.61 -3437.78)" x1="3484.26" x2="3484.26" xlink:href="#b" y1="1285.8" y2="1921.12"/><clipPath id="s"><rect height="29.67" rx="1.98" transform="matrix(.17072543 .98531864 -.98531864 .17072543 216.550177 -134.610289)" width="51.29" x="162.61" y="46.51"/></clipPath><linearGradient id="t" gradientTransform="matrix(0 1 -.43 0 503.5 -3168.81)" x1="3223.72" x2="3223.72" xlink:href="#b" y1="438.03" y2="970.23"/><linearGradient id="u" gradientTransform="matrix(0 1 -.43 0 512.58 -3172.58)" x1="3235.93" x2="3235.93" xlink:href="#b" y1="438.63" y2="970.83"/><rect fill="#1f3136" height="59.79" rx="3.52" transform="matrix(.9957408 -.0921968 .0921968 .9957408 -5.679991 5.369913)" width="33.13" x="38.78" y="34.25"/><rect fill="#325662" height="30.1" rx="2.01" transform="matrix(.0921968 .9957408 -.9957408 .0921968 114.110267 3.120034)" width="56.76" x="26.96" y="49.09"/><g clip-path="url(#a)"><path d="m36.006 34.972 32.989-3.054 1.124 12.138-32.99 3.055z" fill="#6d8091"/><g fill="#dbe8f1" opacity=".36"><path d="m58.225 39.231 7.896-.73.156 1.682-7.897.731z"/><path d="m58.668 42.659 7.93-.714.152 1.69-7.93.714z"/><path d="m40.129 41.17 7.93-.714.152 1.69-7.93.714z"/><path d="m40.344 44.04 7.896-.732.156 1.683-7.896.731z"/><path d="m49 40.075 8.165-.756.445 4.81-8.165.755z"/></g><g fill="#2c3c42"><g opacity=".54"><path d="m43.482 77.16 10.685-.99.156 1.684-10.685.989z"/><path d="m43.777 80.427 7.329-.679.156 1.683-7.329.679z"/><path d="m57.22 75.88 12.138-1.125.156 1.683-12.138 1.124z"/><path d="m57.53 79.156 10.067-.932.155 1.683-10.066.932z"/></g><circle cx="43.91" cy="53.44" r="2.59"/><circle cx="50.81" cy="52.8" r="2.59"/><circle cx="57.71" cy="52.16" r="2.59"/><circle cx="64.62" cy="51.52" r="2.59"/></g><path d="m43.91 53.44 20.48-1.89" fill="none" stroke="#2c3c42" stroke-miterlimit="10"/><g fill="#2c3c42"><path d="m44.182 84.3 4.87-.452.45 4.87-4.87.45z"/><path d="m51.172 83.658 4.87-.451.45 4.869-4.869.45z"/><path d="m58.172 83.005 4.87-.45.45 4.868-4.869.451z"/><path d="m65.164 82.362 4.869-.45.45 4.869-4.869.45z"/></g><path d="m55.19 65.9 8.79 3.92.56-.41-8.79-3.91z" fill="#ee6f48"/><path d="m54.22 56.37.97 9.53.56-.4-.98-9.54zm9.76 13.45.56-.41-.98-9.53-.55.4z" fill="#d2502e"/><path d="m63.01 60.28.55-.4-8.79-3.92-.55.41z" fill="#f08060"/><path d="m56.16 58.87.6 5.9 5.44 2.43-.61-5.9z" fill="#ee6f48"/><path d="m62.2 67.2.55-.41-.6-5.9-.56.41z" fill="#d2502e"/><path d="m61.59 61.3.56-.41-5.44-2.42-.55.4z" fill="#f08060"/><path d="m53.78 66.9 8.79 3.92.55-.4-8.79-3.92z" fill="#ee6f48"/><path d="m52.8 57.37.98 9.53.55-.4-.97-9.54zm9.77 13.45.55-.4-.97-9.54-.56.41z" fill="#d2502e"/><path d="m61.59 61.29.56-.41-8.79-3.92-.56.41z" fill="#f08060"/><path d="m54.74 59.91.6 5.9 5.44 2.42-.61-5.9z" fill="#ee6f48"/><path d="m60.78 68.23.55-.4-.6-5.9-.56.4z" fill="#d2502e"/><path d="m60.17 62.33.56-.4-5.44-2.43-.55.41z" fill="#f08060"/><path d="m52.36 67.95 8.79 3.92.55-.41-8.79-3.92z" fill="#ee6f48"/><path d="m51.38 58.41.98 9.54.55-.41-.97-9.53zm9.77 13.46.55-.41-.97-9.54-.56.41z" fill="#d2502e"/><path d="m60.17 62.33.56-.41-8.79-3.91-.56.4z" fill="#f08060"/><path d="m53.32 60.94.6 5.9 5.44 2.43-.6-5.9z" fill="#ee6f48"/><path d="m59.36 69.27.55-.41-.6-5.9-.55.41z" fill="#d2502e"/><path d="m58.76 63.37.55-.41-5.44-2.43-.55.41z" fill="#f08060"/><path d="m50.94 68.98 8.79 3.92.55-.4-8.79-3.92z" fill="#ee6f48"/><path d="m49.97 59.45.97 9.53.55-.4-.97-9.54zm9.76 13.45.55-.4-.97-9.54-.55.41z" fill="#d2502e"/><path d="m58.76 63.37.55-.41-8.79-3.92-.55.41z" fill="#f08060"/><path d="m51.9 61.97.6 5.9 5.44 2.43-.61-5.9z" fill="#ee6f48"/><path d="m57.94 70.3.55-.41-.6-5.9-.56.41z" fill="#d2502e"/><path d="m57.33 64.4.56-.41-5.44-2.42-.55.4z" fill="#f08060"/><path d="m49.51 70.02 8.79 3.92.56-.41-8.79-3.92z" fill="#ee6f48"/><path d="m48.54 60.48.97 9.54.56-.41-.98-9.53zm9.76 13.46.56-.41-.98-9.53-.55.4z" fill="#d2502e"/><path d="m57.33 64.4.55-.4-8.79-3.92-.55.4z" fill="#f08060"/><path d="m50.47 63.04.6 5.9 5.44 2.42-.6-5.9z" fill="#ee6f48"/><path d="m56.51 71.36.56-.41-.61-5.9-.55.41z" fill="#d2502e"/><path d="m55.91 65.46.55-.41-5.44-2.42-.55.41z" fill="#f08060"/><path d="m48.09 71.06 8.79 3.92.55-.41-8.79-3.92z" fill="#ee6f48"/><path d="m47.11 61.52.98 9.54.55-.41-.97-9.53zm9.77 13.46.55-.41-.97-9.53-.56.4z" fill="#d2502e"/><path d="m55.9 65.44.56-.4-8.79-3.92-.56.4z" fill="#f08060"/><path d="m48.92 64.13.61 5.9 5.43 2.42-.6-5.89z" fill="#ee6f48"/><path d="m54.96 72.45.56-.4-.6-5.9-.56.41z" fill="#d2502e"/><path d="m54.36 66.56.56-.41-5.44-2.43-.56.41z" fill="#f08060"/><path d="m58.86 73.53-.97-9.54.87-.62.97 9.53zm-1.43 1.04-.97-9.53.87-.63.97 9.53zm2.85-2.07-.97-9.54.87-.63.97 9.53zm1.42-1.04-.97-9.54.86-.63.98 9.53zm1.41-1.03-.96-9.55.86-.6.97 9.52z" fill="#d2502e" opacity=".69"/><path d="m63.01 60.28-8.79-3.91-.86.59 8.79 3.92zm-1.42 1.01-8.79-3.92-.86.64 8.79 3.91zm-1.42 1.04-8.79-3.92-.86.63 8.79 3.92zm-1.41 1.04-8.79-3.92-.88.63 8.8 3.91zm-1.43 1.03-8.79-3.92-.87.64 8.79 3.92z" fill="#f4ab88" opacity=".81"/></g><path d="m44.529 35.126 16.12-1.493.185 1.992a1.63 1.63 0 0 1 -1.483 1.774l-12.855 1.19a1.63 1.63 0 0 1 -1.773-1.472l-.184-1.992z" fill="#1f3136"/><g clip-path="url(#a)" opacity=".47"><path d="m11.87 50.57h65.83v7.67h-65.83z" fill="url(#b)" transform="matrix(.73194858 -.68135987 .68135987 .73194858 -25.059954 45.100106)"/><path d="m20.12 59.81h65.83v7.67h-65.83z" fill="url(#c)" transform="matrix(.73194858 -.68135987 .68135987 .73194858 -29.149824 53.190067)"/></g><rect fill="#6d8091" height=".87" rx=".38" transform="matrix(.9957408 -.0921968 .0921968 .9957408 -3.149973 4.940005)" width="8.27" x="47.76" y="36.19"/><circle cx="57.37" cy="36.12" fill="#6d8091" r=".43"/><path d="m65.9 33.91a2.79 2.79 0 0 1 2.76 2.51l4.86 52.58a2.77 2.77 0 0 1 -2.52 3l-26 2.37h-.25a2.79 2.79 0 0 1 -2.75-2.51l-4.83-52.52a2.78 2.78 0 0 1 2.5-3l26-2.4h.26m0-.75h-.33l-26 2.41a3.53 3.53 0 0 0 -3.18 3.83l4.86 52.52a3.54 3.54 0 0 0 3.51 3.2h.32l26-2.4a3.54 3.54 0 0 0 3.19-3.83l-4.9-52.57a3.53 3.53 0 0 0 -3.5-3.19z" fill="#dbe8f1" opacity=".19"/><path d="m12 109.68a3.54 3.54 0 0 1 .81-4.42l19.93-15.63c2.64-2.31 6.56-2.06 8.31.53l1.05 1.55a5.3 5.3 0 0 1 -.69 6.47l-17.81 19.82c-1.62 1.8-4.41 1.87-5.72.14a3.38 3.38 0 0 1 0-3.94l7.19-9.2-7.89 5.45a3.61 3.61 0 0 1 -5.18-.77z" fill="#ece5e1"/><path d="m35.88 78.43-4.13-4.2.52-.52 4.13 4.2z" fill="#cdc9c6"/><path d="m30.26 74.26a1.66 1.66 0 1 1 2 1.22 1.66 1.66 0 0 1 -2-1.22z" fill="#e3603e"/><path d="m33.47 73.43a1.63 1.63 0 0 1 -.16 1.26 1.49 1.49 0 0 1 -1.44.24 1.85 1.85 0 0 1 -1.44-1.82v-.08a1.66 1.66 0 0 1 1-.76 1.7 1.7 0 0 1 1.25.15 1.64 1.64 0 0 1 .79 1.01z" fill="#ee6b42"/><path d="m32.48 84.69a8 8 0 1 1 9.65 5.88 8 8 0 0 1 -9.65-5.88z" fill="#ece5e1"/><path d="m48 80.91a8 8 0 0 1 .19 2.71 5.15 5.15 0 0 1 -.93.33 4.91 4.91 0 0 1 -4.18-8.63 8 8 0 0 1 4.92 5.59z" fill="#b1c9d2"/><path d="m40.68 87.48a9.78 9.78 0 0 0 6.86-3 7.06 7.06 0 0 0 .63-.72 8 8 0 0 1 -15.92-.76 10 10 0 0 0 1.46 1.78 9.77 9.77 0 0 0 6.97 2.7z" fill="#ece5e1" opacity=".4"/><path d="m44.75 76.71a.41.41 0 0 0 -.27 0 .41.41 0 0 0 -.2.17.36.36 0 0 0 0 .27.34.34 0 0 0 .17.2l.09.06.11.06.2.14a3.79 3.79 0 0 1 .4.3 6.67 6.67 0 0 1 1.33 1.52 6.42 6.42 0 0 1 .47.9.27.27 0 0 0 .11.1.22.22 0 0 0 .14 0 .22.22 0 0 0 .11-.1.19.19 0 0 0 0-.15 7.35 7.35 0 0 0 -.43-1 6.84 6.84 0 0 0 -.59-.92 6.22 6.22 0 0 0 -.72-.82 4.72 4.72 0 0 0 -.41-.37l-.26-.18-.11-.08-.13-.08zm2.78 4.49a.14.14 0 0 0 .08-.09.11.11 0 0 0 0-.1.35.35 0 0 0 0-.08h-.09a.15.15 0 0 0 -.09 0l-.07.06a.16.16 0 0 0 0 .1.11.11 0 0 0 0 .08.16.16 0 0 0 .08.06.17.17 0 0 0 .09-.03z" fill="#e8eaec" opacity=".24"/><g opacity=".9"><path d="m38.18 84.26a1.36 1.36 0 0 1 2.64-.64 1.36 1.36 0 1 1 -2.64.64z" fill="#726b65" opacity=".9"/><path d="m38.62 84.15a.91.91 0 0 1 .66-1.09.9.9 0 1 1 .43 1.75.9.9 0 0 1 -1.09-.66z" fill="#ece5e1" opacity=".3"/></g><path d="m58.65 86.73a2.84 2.84 0 0 0 -.21-2.16 2.89 2.89 0 0 0 -3.82-1.29l-15.41 7.55a3.39 3.39 0 0 0 -1 .81 3.36 3.36 0 0 0 -.79 2.45 3.46 3.46 0 0 0 .37 1.26 3.33 3.33 0 0 0 4.53 1.4l15-8.32a2.86 2.86 0 0 0 1.33-1.7z" fill="#ece5e1"/><path d="m38.51 91-6.43 9.6-7.34-3a.7.7 0 0 0 -.18.2.59.59 0 0 0 0 .52.72.72 0 0 0 .18.21l4.26 2.88a2.25 2.25 0 0 0 1.17.4 2.35 2.35 0 0 0 1.22-.25l.52-.28 2.09 3.48-8.91 11.59 9.93-11 6.16-6.83a8.2 8.2 0 0 0 .8-1l.16-.27.12-.42 1.18-.65s13.43-7.42 13.28-7.35c-6.55 2.78-12.82 5.83-13.6 5.17a4.36 4.36 0 0 1 -1.26-4.54z" fill="#ece5e1" opacity=".4"/><path d="m34.59 105.62a.7.7 0 0 1 -.39-.15c-2.82-2.45-3.06-7-3.06-7s2.49-4.94 1.4-1.31c-.8 2.67 1.59 6.5 2.5 7.36a.54.54 0 0 1 .15.22.63.63 0 0 1 0 .27.48.48 0 0 1 -.07.26.55.55 0 0 1 -.17.2.62.62 0 0 1 -.36.15zm8.15-8.91a.56.56 0 0 0 -.1-.4c-2.06-3.12-6.52-3.93-6.52-3.93s-5.21 1.84-1.48 1.22c2.75-.45 6.24 2.4 7 3.42a.65.65 0 0 0 .2.17.61.61 0 0 0 .26.08.57.57 0 0 0 .26 0 .68.68 0 0 0 .23-.14.6.6 0 0 0 .15-.42z" fill="#f08867"/><path d="m25.09 94.08 5.8-5.69c1.31-1.28 3.25-1.73 4.32-1l4.31 3c1 .73.88 2-.4 3.29l-5.93 6.1c-1.28 1.25-3.18 1.69-4.22 1l-3.87-2.72a2.65 2.65 0 0 1 -.01-3.98z" fill="#e57f64"/><path d="m25.25 93.92 6-5.87c1.11-1.09 2.77-1.47 3.68-.84l4.49 3.12c.22.15.18.48-.08.73l-7.46 7.32a2.48 2.48 0 0 1 -2.88.62l-4.31-2.9c-.69-.48-.25-1.38.56-2.18z" fill="#f08867"/><g mask="url(#d)"><path d="m27.43 91.79 5 3.45c.37.26.3.83-.15 1.27l-.23.23a1.3 1.3 0 0 1 -1.49.34l-5-3.46z" fill="#4c405d"/><path d="m32.39 94.41c-.15-.22 0-.59.32-.82s.72-.23.87 0 0 .59-.31.82a.65.65 0 0 1 -.88 0zm-1.39-.99c-.15-.22 0-.58.32-.81s.72-.24.87 0 0 .58-.31.81-.75.23-.88 0z" fill="#ece5e1"/><path d="m30.63 96.12.65-.63a.19.19 0 0 1 .14-.09.32.32 0 0 1 .17 0l.24.18c.08 0 .07.17 0 .26l-.65.64a.28.28 0 0 1 -.14.09.25.25 0 0 1 -.17 0l-.25-.17c-.11-.07-.09-.19.01-.28zm-1.16-.8.65-.64a.42.42 0 0 1 .14-.09.25.25 0 0 1 .17 0l.25.17c.08 0 .07.17 0 .27l-.65.63a.19.19 0 0 1 -.14.09.25.25 0 0 1 -.17 0l-.25-.18c-.11-.04-.1-.16 0-.25zm-1.15-.79.64-.64a.38.38 0 0 1 .15-.09.32.32 0 0 1 .17 0l.25.17c.08.05.06.17 0 .26l-.65.64a.28.28 0 0 1 -.15.08.25.25 0 0 1 -.17 0l-.25-.17c-.11-.05-.09-.17.01-.25zm-1.16-.81.65-.64a.42.42 0 0 1 .19-.08.32.32 0 0 1 .17 0l.25.17c.08 0 .07.17 0 .27l-.65.63a.19.19 0 0 1 -.14.09.25.25 0 0 1 -.17 0l-.33-.16c-.08-.07-.07-.19.03-.28z" fill="#7c738b"/><path d="m28.8 91.22.2-.22a.36.36 0 0 1 .43-.09l1.48 1c.11.07.09.24 0 .37l-.19.18a.37.37 0 0 1 -.43.1l-1.48-1c-.15-.05-.13-.22-.01-.34zm4.12-5.4 5.64 3.91-1.17 1.15c-1.39 1.34-3.39 1.79-4.49 1.02l-3.62-2.52z" fill="#615478"/></g><path d="m12.14 114 1.14-.93a.85.85 0 0 0 .11-1.25l-2.6-2.9a.85.85 0 0 0 -1.24-.11l-1.14.94a.84.84 0 0 0 -.11 1.25l2.6 2.91a1 1 0 0 0 1.24.1" fill="#f89e7a"/><path d="m5.71 119.92-5.61.51a.1.1 0 0 1 -.1-.1l1.25-5.33a4 4 0 0 1 4.87-3 4.16 4.16 0 0 1 3.12 4.77 3.88 3.88 0 0 1 -3.53 3.12" fill="#e9806e"/><path d="m6.64 117.53-3.64.31.83-3.42a2.65 2.65 0 0 1 3.22-2 2.54 2.54 0 0 1 2 3.12 2.45 2.45 0 0 1 -2.39 2" fill="#f79d7a"/><path d="m7.47 115.66-2.07.21.41-2a1.57 1.57 0 0 1 1.76-1.14 1.44 1.44 0 0 1 1.15 1.76 1.34 1.34 0 0 1 -1.25 1.14" fill="#fff3da"/><path d="m14.53 113.79 1.76-1.45a1.25 1.25 0 0 0 .11-1.87l-3.95-4.47a1.44 1.44 0 0 0 -2-.1l-1.76 1.35a1.22 1.22 0 0 0 -.11 1.86l4 4.47a1.45 1.45 0 0 0 2 .2" fill="#325662"/><path d="m10.58 110.06c.11.21.42.21.63.1s.2-.41.1-.62a.63.63 0 0 0 -.73-.1c-.1.2-.2.41 0 .62m-.93-1.14c.1.2.42.2.62.1s.21-.41.11-.62-.42-.21-.63-.11-.31.42-.1.63m3.11 3.32.24-.24c.1-.1.1-.21 0-.21l-1-1.11c-.11-.1-.21-.1-.21 0l-.21.21c-.1.1-.1.21 0 .21l.94 1.14h.2" fill="#dbe8f1"/><path d="m19.92 121.78 1-1a1 1 0 0 0 0-1.25l-2.8-2.7a1 1 0 0 0 -1.25 0l-1 1a.93.93 0 0 0 0 1.25l2.8 2.69c.31.42.83.31 1.24 0" fill="#f89e7a"/><path d="m14 128.22-5.5.72a.1.1 0 0 1 -.1-.1l1-5.4a4.12 4.12 0 1 1 4.6 4.78" fill="#e9806e"/><path d="m14.84 125.93-3.63.52.62-3.53a2.61 2.61 0 0 1 3.11-2.07 2.71 2.71 0 0 1 2.18 3 2.77 2.77 0 0 1 -2.28 2.07" fill="#f79d7a"/><path d="m15.56 124-2.07.31.41-2a1.41 1.41 0 0 1 1.77-1.14 1.52 1.52 0 0 1 1.24 1.76 1.74 1.74 0 0 1 -1.35 1" fill="#fff3da"/><path d="m22.21 121.26 1.55-1.66a1.3 1.3 0 0 0 0-1.86l-4.36-4a1.44 1.44 0 0 0 -2 0l-1.55 1.66a1.32 1.32 0 0 0 0 1.87l4.35 4a1.45 1.45 0 0 0 2 0" fill="#325662"/><path d="m20.75 120.23.25-.23c.1-.1.1-.21 0-.21l-1-1.14c-.1-.1-.2-.1-.2 0l-.21.21c-.11.1-.11.21 0 .21l1 1.14c0 .1.2.1.2 0" fill="#dbe8f1"/><g fill="none" stroke="#6d8091"><path d="m80.12 24.59h-2.5m-6.74 0h-2.5v-2.5"/><path d="m68.38 18v-6.13" stroke-dasharray="4.09 4.09"/><path d="m68.38 9.82v-2.5h-2.5"/><path d="m62.05 7.32h-5.74" stroke-dasharray="3.83 3.83"/><path d="m54.39 7.32h-2.5v2.5"/><path d="m51.89 14.23v6.61" stroke-dasharray="4.41 4.41"/><path d="m51.89 23.04v2.5m132.5 3.59v-2.5m0-4.17v-2.5h-2.5"/><path d="m177.56 19.96h-6.5" stroke-dasharray="4.33 4.33"/><path d="m168.89 19.96h-2.5v-2.5"/><path d="m166.39 14.47v-4.48" stroke-dasharray="2.99 2.99"/><path d="m166.39 8.49v-2.5h-2.5"/><path d="m159.37 5.99h-33.9" stroke-dasharray="4.52 4.52"/><path d="m123.21 5.99h-2.5v2.5m0 .78v2.5m24.29 72.48h2.5m5.19 0h2.5v2.5"/><path d="m155.19 92.36v8.41" stroke-dasharray="5.61 5.61"/><path d="m155.19 103.58v2.5h2.5"/><path d="m162.42 106.08h26" stroke-dasharray="4.73 4.73"/><path d="m190.79 106.08h2.5v-2.5m0-7.18v-2.5m-136.24 6.02v2.5m0 5.1v2.5h2.5"/><path d="m65.84 110.02h9.44" stroke-dasharray="6.29 6.29"/><path d="m78.43 110.02h2.5v-2.5"/><path d="m80.93 103.37v-14.54" stroke-dasharray="4.15 4.15"/><path d="m80.93 86.75v-2.5h2.5"/><path d="m86.35 84.25h4.38" stroke-dasharray="2.92 2.92"/><path d="m92.2 84.25h2.5"/></g><path d="m157.08 61.08v-44.36a1.83 1.83 0 0 0 -1.84-1.83h-70.31a1.83 1.83 0 0 0 -1.84 1.83v44.36z" fill="#1f3136"/><path d="m86.12 17.74h67.93v40.31h-67.93z" fill="#325662"/><path d="m121.52 64.62a1.28 1.28 0 1 1 -1.28-1.26 1.27 1.27 0 0 1 1.28 1.26" fill="#f08862"/><path d="m129.33 72.68h-1.27v-4.54h27.18a1.82 1.82 0 0 0 1.84-1.82v-5.24h-74v5.24a1.82 1.82 0 0 0 1.84 1.82h28.41v4.54h-1.27a6.92 6.92 0 0 0 -5.78 3.14l-.31.47h29.45l-.32-.47a6.9 6.9 0 0 0 -5.78-3.14" fill="#325662"/><path d="m113.34 68.14h14.73v1.58h-14.73z" fill="#1f3136"/><path d="m121.52 64.62a1.28 1.28 0 1 1 -1.28-1.26 1.27 1.27 0 0 1 1.28 1.26" fill="#dbe8f1"/><path d="m94.44 32.34h6.68v1.45h-6.68zm0-5.49a3.34 3.34 0 1 1 3.34 3.31 3.33 3.33 0 0 1 -3.34-3.31" fill="#6d8091"/><path d="m103.12 28.14h10.96v1.06h-10.96zm0-2.3h10.96v1.06h-10.96zm0-2.3h10.96v1.06h-10.96zm0 6.9h10.96v1.06h-10.96zm0 2.3h10.96v1.06h-10.96zm-8.68 5.27h20.01v.69h-20.01zm0 2.62h20.01v.69h-20.01zm0 2.61h20.01v.69h-20.01zm0 2.61h20.01v.69h-20.01zm0 2.61h20.01v.69h-20.01z" fill="#6d8091"/><path d="m134.64 22.56v.62" fill="none" stroke="#6d8091" stroke-dasharray=".62"/><path d="m134.64 24.06v1" fill="none" stroke="#6d8091"/><path d="m134.64 26.99v26.03" fill="none" stroke="#6d8091" stroke-dasharray="1.93 1.93"/><path d="m134.64 53.99v1" fill="none" stroke="#6d8091"/><path d="m134.64 55.57v.61m-17.83-11.26h.61" fill="none" stroke="#6d8091" stroke-dasharray=".62"/><path d="m118.33 44.92h1" fill="none" stroke="#6d8091"/><path d="m121.27 44.92h26.28" fill="none" stroke="#6d8091" stroke-dasharray="1.95 1.95"/><path d="m148.53 44.92h1" fill="none" stroke="#6d8091"/><path d="m150.11 44.92h.62m-34.15-10.68h.61" fill="none" stroke="#6d8091" stroke-dasharray=".62"/><path d="m118.09 34.24h1" fill="none" stroke="#6d8091"/><path d="m121.04 34.24h26.28" fill="none" stroke="#6d8091" stroke-dasharray="1.95 1.95"/><path d="m148.3 34.24h1" fill="none" stroke="#6d8091"/><path d="m149.88 34.24h.62" fill="none" stroke="#6d8091" stroke-dasharray=".62"/><g clip-path="url(#e)"><path d="m135.38 39.92-9.05 5.23-.64-.38 9.04-5.23z" fill="#ee6e48"/><path d="m135.35 29.52.03 10.4-.65-.38-.03-10.4zm-9.05 5.22.03 10.41-.64-.38-.03-10.4z" fill="#d24f2e"/><path d="m134.7 29.14.65.38-9.05 5.22-.64-.37z" fill="#f0805f"/><path d="m133.54 32.44.01 6.44-5.59 3.23-.02-6.43z" fill="#ee6e48"/><path d="m127.96 42.11-.65-.37-.01-6.44.64.38z" fill="#d24f2e"/><path d="m127.94 35.68-.64-.38 5.59-3.23.65.37z" fill="#f0805f"/><path d="m137.01 40.84-9.04 5.23-.64-.38 9.04-5.23z" fill="#ee6e48"/><path d="m136.98 30.44.03 10.4-.64-.38-.03-10.4zm-9.01 15.63-.64-.38-.03-10.4.64.37z" fill="#d24f2e"/><path d="m127.94 35.66-.64-.37 9.04-5.23.64.38z" fill="#f0805f"/><path d="m135.19 33.4.02 6.43-5.6 3.24-.02-6.44z" fill="#ee6e48"/><path d="m129.61 43.07-.65-.38-.01-6.43.64.37z" fill="#d24f2e"/><path d="m129.59 36.63-.64-.37 5.59-3.24.65.38z" fill="#f0805f"/><path d="m138.66 41.81-9.04 5.22-.65-.37 9.05-5.23z" fill="#ee6e48"/><path d="m138.63 31.41.03 10.4-.64-.38-.03-10.4zm-9.01 15.62-.65-.37-.03-10.4.65.37z" fill="#d24f2e"/><path d="m129.59 36.63-.65-.37 9.05-5.23.64.38z" fill="#f0805f"/><path d="m136.84 34.35.01 6.44-5.59 3.23-.02-6.43z" fill="#ee6e48"/><path d="m131.26 44.02-.65-.37-.02-6.44.65.38z" fill="#d24f2e"/><path d="m131.24 37.59-.65-.38 5.6-3.23.65.37z" fill="#f0805f"/><path d="m140.31 42.76-9.04 5.23-.65-.38 9.05-5.22z" fill="#ee6e48"/><path d="m140.28 32.36.03 10.4-.64-.37-.03-10.41zm-9.01 15.63-.65-.38-.03-10.4.65.38z" fill="#d24f2e"/><path d="m131.24 37.59-.65-.38 9.05-5.23.64.38z" fill="#f0805f"/><path d="m138.49 35.31.01 6.43-5.59 3.24-.02-6.44z" fill="#ee6e48"/><path d="m132.91 44.98-.65-.38-.01-6.44.64.38z" fill="#d24f2e"/><path d="m132.89 38.54-.64-.38 5.59-3.23.65.38z" fill="#f0805f"/><path d="m141.97 43.72-9.04 5.23-.65-.38 9.04-5.23z" fill="#ee6e48"/><path d="m141.94 33.32.03 10.4-.65-.38-.03-10.4zm-9.01 15.63-.65-.38-.03-10.4.65.37z" fill="#d24f2e"/><path d="m132.9 38.54-.65-.37 9.04-5.23.65.38z" fill="#f0805f"/><path d="m140.15 36.29.01 6.44-5.59 3.23-.02-6.44z" fill="#ee6e48"/><path d="m134.57 45.96-.65-.38-.01-6.43.64.37z" fill="#d24f2e"/><path d="m134.55 39.52-.64-.37 5.59-3.24.65.38z" fill="#f0805f"/><path d="m143.63 44.68-9.04 5.23-.65-.38 9.04-5.23z" fill="#ee6e48"/><path d="m143.6 34.28.03 10.4-.65-.38-.03-10.4zm-9.04 5.23.03 10.4-.65-.38-.03-10.4z" fill="#d24f2e"/><path d="m143.6 34.28-9.04 5.23-.65-.38 9.04-5.23z" fill="#f0805f"/><path d="m141.94 37.3.02 6.43-5.6 3.24-.02-6.44z" fill="#ee6e48"/><path d="m136.36 46.97-.64-.38-.02-6.44.64.38z" fill="#d24f2e"/><path d="m136.34 40.53-.64-.38 5.59-3.23.65.38z" fill="#f0805f"/><g clip-path="url(#e)"><g clip-path="url(#f)" opacity=".69"><path d="m132.28 48.57-.03-10.4-1.01-.58.03 10.39z" fill="#d24f2e"/></g><g clip-path="url(#g)" opacity=".69"><path d="m133.94 49.53-.04-10.4-1-.58.03 10.4z" fill="#d24f2e"/></g><g clip-path="url(#h)" opacity=".69"><path d="m130.63 47.61-.04-10.4-1-.58.03 10.4z" fill="#d24f2e"/></g><g clip-path="url(#i)" opacity=".69"><path d="m128.98 46.65-.03-10.4-1.01-.58.03 10.4z" fill="#d24f2e"/></g><g clip-path="url(#j)" opacity=".69"><path d="m127.34 45.71-.04-10.42-1-.55.03 10.38z" fill="#d24f2e"/></g><g clip-path="url(#k)" opacity=".81"><path d="m126.3 34.74 9.05-5.22.99.54-9.04 5.23z" fill="#f4ab88"/></g><g clip-path="url(#l)" opacity=".81"><path d="m127.94 35.66 9.04-5.22 1.01.59-9.04 5.22z" fill="#f4ab88"/></g><g clip-path="url(#m)" opacity=".81"><path d="m129.59 36.63 9.04-5.22 1.01.57-9.05 5.23z" fill="#f4ab88"/></g><g clip-path="url(#n)" opacity=".81"><path d="m131.24 37.59 9.04-5.23 1.01.58-9.04 5.22z" fill="#f4ab88"/></g><g clip-path="url(#o)" opacity=".81"><path d="m132.89 38.54 9.05-5.22 1.01.58-9.04 5.23z" fill="#f4ab88"/></g></g></g><g clip-path="url(#p)"><path d="m82.58 30.24h77.48v9.03h-77.48z" fill="url(#q)" transform="matrix(.79165027 -.61097451 .61097451 .79165027 4.040293 81.359943)"/><path d="m91.25 41.97h77.48v9.03h-77.48z" fill="url(#r)" transform="matrix(.79165027 -.61097451 .61097451 .79165027 -1.319852 89.099605)"/></g><path d="m108 98.3v-2.08a2.9 2.9 0 0 1 2.91-2.9h18.35a2.91 2.91 0 0 1 2.92 2.9v2.08z" fill="#325662"/><path d="m108.05 95.58h24a2.91 2.91 0 0 0 -2.84-2.26h-18.32a2.92 2.92 0 0 0 -2.84 2.26z" fill="#1f3136"/><rect fill="#325662" height="17.87" rx="3.91" width="45.16" x="97.45" y="76.02"/><path d="m137.84 79.72h-36a2.27 2.27 0 0 0 -2.24 2.28v7.53a2.27 2.27 0 0 0 2.27 2.27h7.94l2.07-2.26h16l2.07 2.26h7.94a2.27 2.27 0 0 0 2.27-2.27v-7.53a2.27 2.27 0 0 0 -2.32-2.28z" fill="#1f3136"/><path d="m137.84 78.22h-36a2.27 2.27 0 0 0 -2.27 2.26v7.52a2.27 2.27 0 0 0 2.27 2.26h7.94l2.1-2.26h16l2.07 2.26h7.94a2.27 2.27 0 0 0 2.22-2.26v-7.52a2.27 2.27 0 0 0 -2.27-2.26z" fill="#6d8091"/><path d="m130.61 81.33h-.93a.4.4 0 0 1 -.4-.39v-.42a.4.4 0 0 1 .4-.4h.93a.4.4 0 0 1 .4.4v.42a.4.4 0 0 1 -.4.39" fill="#dbe8f1"/><path d="m133.1 81.31h-.93a.4.4 0 0 1 -.4-.39v-.42a.4.4 0 0 1 .4-.4h.93a.4.4 0 0 1 .4.4v.42a.4.4 0 0 1 -.4.39" fill="#325662"/><path d="m135.6 81.29h-.94a.38.38 0 0 1 -.39-.39v-.42a.38.38 0 0 1 .39-.39h.94a.38.38 0 0 1 .39.39v.42a.38.38 0 0 1 -.39.39" fill="#f89e7a"/><path d="m138.09 81.27h-.93a.39.39 0 0 1 -.4-.39v-.42a.39.39 0 0 1 .4-.39h.93a.39.39 0 0 1 .4.39v.42a.39.39 0 0 1 -.4.39" fill="#325662"/><path d="m130.63 83.28h-.93a.4.4 0 0 1 -.4-.4v-.42a.4.4 0 0 1 .4-.39h.93a.4.4 0 0 1 .4.39v.42a.4.4 0 0 1 -.4.4" fill="#f89e7a"/><path d="m133.12 83.26h-.93a.4.4 0 0 1 -.4-.4v-.42a.4.4 0 0 1 .4-.39h.93a.4.4 0 0 1 .4.39v.42a.4.4 0 0 1 -.4.4" fill="#dbe8f1"/><path d="m135.62 83.24h-.94a.39.39 0 0 1 -.39-.4v-.42a.39.39 0 0 1 .39-.39h.94a.39.39 0 0 1 .39.39v.42a.39.39 0 0 1 -.39.4" fill="#f89e7a"/><path d="m138.11 83.22h-.93a.4.4 0 0 1 -.4-.4v-.42a.4.4 0 0 1 .4-.39h.93a.4.4 0 0 1 .4.39v.42a.4.4 0 0 1 -.4.4" fill="#dbe8f1"/><g fill="#325662"><circle cx="102.91" cy="80.34" r=".86"/><circle cx="102.91" cy="83.07" r=".86"/><circle cx="102.91" cy="85.79" r=".86"/><circle cx="105.73" cy="80.34" r=".86"/><circle cx="105.73" cy="83.07" r=".86"/><circle cx="105.73" cy="85.79" r=".86"/><circle cx="108.56" cy="80.34" r=".86"/><circle cx="108.56" cy="83.07" r=".86"/><circle cx="108.56" cy="85.79" r=".86"/><circle cx="111.38" cy="80.34" r=".86"/><circle cx="111.38" cy="83.07" r=".86"/><circle cx="111.38" cy="85.79" r=".86"/><circle cx="114.2" cy="80.34" r=".86"/><circle cx="114.2" cy="83.07" r=".86"/><circle cx="114.2" cy="85.79" r=".86"/><circle cx="117.03" cy="80.34" r=".86"/><circle cx="117.03" cy="83.07" r=".86"/><circle cx="117.03" cy="85.79" r=".86"/><circle cx="119.85" cy="80.34" r=".86"/><circle cx="119.85" cy="83.07" r=".86"/><circle cx="119.85" cy="85.79" r=".86"/><circle cx="122.68" cy="80.34" r=".86"/><circle cx="122.68" cy="83.07" r=".86"/><circle cx="122.68" cy="85.79" r=".86"/><circle cx="125.5" cy="80.34" r=".86"/><circle cx="125.5" cy="83.07" r=".86"/><circle cx="125.5" cy="85.79" r=".86"/></g><rect fill="#dbe8f1" height="1.27" opacity=".5" rx=".34" width="9.19" x="129.3" y="85.85"/><rect fill="#665d81" height="1.27" opacity=".5" rx=".34" width="9.19" x="129.3" y="84.01"/><path d="m114.1 111.71 5.77 8.1a.13.13 0 0 0 .17 0l5.86-8a7.29 7.29 0 1 0 -11.83-.06z" fill="#ee5c2f"/><path d="m116.17 107.72 3.77 5.3a.09.09 0 0 0 .12 0l3.84-5.26a4.77 4.77 0 1 0 -7.74 0z" fill="#f79d7d"/><path d="m117.88 104.42 2.12 3h.07l2.15-3a2.68 2.68 0 1 0 -4.35 0z" fill="#e7dfcb"/><rect fill="#1f3136" height="64.82" rx="1.37" transform="matrix(.98531864 -.17072543 .17072543 .98531864 -8.029942 33.130032)" width="34.75" x="171.2" y="30.81"/><rect fill="#1f3136" height="54.27" rx="3.47" transform="matrix(.98531864 -.17072543 .17072543 .98531864 -7.710054 33.03992)" width="32.66" x="171.92" y="34.21"/><rect fill="#325662" height="29.67" rx="1.98" transform="matrix(.17072543 .98531864 -.98531864 .17072543 216.550177 -134.610289)" width="51.29" x="162.61" y="46.51"/><g clip-path="url(#s)"><g fill="#2c3c42" opacity=".54"><path d="m176.779 66.856 21.215-3.643.284 1.653-21.215 3.643z"/><path d="m176.557 69.616 25.244-4.374.285 1.645-25.244 4.374z"/><path d="m177.115 72.803 21.115-3.659.285 1.646-21.115 3.658z"/><path d="m177.66 75.992 25.244-4.374.285 1.646-25.244 4.374z"/><path d="m178.21 79.184 22.23-3.851.285 1.645-22.23 3.852z"/><path d="m178.77 82.375 15.243-2.642.286 1.646-15.243 2.641z"/><path d="m189.418 64.103 10.208-1.769.285 1.646-10.208 1.769z"/><path d="m189.96 67.296 11.844-2.052.285 1.645-11.843 2.053z"/><path d="m190.517 70.483 11.184-1.938.285 1.646-11.183 1.937z"/><path d="m191.064 73.675 11.843-2.052.286 1.645-11.844 2.052z"/><path d="m191.62 76.862 11.844-2.052.285 1.646-11.844 2.052z"/><path d="m192.167 80.057 9.814-1.7.285 1.645-9.813 1.7z"/></g><path d="m185.05 50.27 9.71 3.61.57-.48-9.71-3.61z" fill="#ee6f48"/><path d="m183.35 40.08 1.7 10.19.57-.48-1.7-10.18zm11.41 13.8.57-.48-1.7-10.18-.57.48z" fill="#d2502e"/><path d="m193.06 43.7.57-.48-9.71-3.61-.57.47z" fill="#f08060"/><path d="m185.6 42.65 1.06 6.3 6.01 2.23-1.05-6.3z" fill="#ee6f48"/><path d="m192.67 51.18.57-.48-1.05-6.29-.57.47z" fill="#d2502e"/><path d="m191.62 44.88.57-.47-6.01-2.24-.58.48z" fill="#f08060"/><path d="m183.6 51.44 9.71 3.61.57-.47-9.71-3.62z" fill="#ee6f48"/><path d="m181.9 41.26 1.7 10.18.57-.48-1.7-10.18zm11.41 13.79.57-.47-1.7-10.19-.57.48z" fill="#d2502e"/><path d="m191.61 44.87.57-.48-9.71-3.61-.57.48z" fill="#f08060"/><path d="m184.15 43.85 1.05 6.3 6.01 2.24-1.05-6.3z" fill="#ee6f48"/><path d="m191.21 52.39.57-.48-1.05-6.3-.57.48z" fill="#d2502e"/><path d="m190.16 46.09.57-.48-6.01-2.23-.57.47z" fill="#f08060"/><path d="m182.14 52.66 9.72 3.61.57-.47-9.72-3.62z" fill="#ee6f48"/><path d="m180.44 42.48 1.7 10.18.57-.48-1.7-10.18zm11.42 13.79.57-.47-1.7-10.19-.57.48z" fill="#d2502e"/><path d="m190.16 46.09.57-.48-9.72-3.61-.57.48z" fill="#f08060"/><path d="m182.69 45.06 1.06 6.3 6.01 2.24-1.05-6.3z" fill="#ee6f48"/><path d="m189.76 53.6.56-.48-1.04-6.3-.57.48z" fill="#d2502e"/><path d="m188.71 47.3.57-.48-6.02-2.23-.57.47z" fill="#f08060"/><path d="m180.69 53.87 9.71 3.61.57-.48-9.71-3.61z" fill="#ee6f48"/><path d="m178.99 43.69 1.7 10.18.57-.48-1.7-10.18zm11.41 13.79.57-.48-1.7-10.18-.57.48z" fill="#d2502e"/><path d="m188.7 47.3.57-.48-9.71-3.61-.57.48z" fill="#f08060"/><path d="m181.24 46.27 1.05 6.3 6.01 2.23-1.05-6.3z" fill="#ee6f48"/><path d="m188.3 54.8.57-.47-1.05-6.3-.57.47z" fill="#d2502e"/><path d="m187.25 48.5.57-.47-6.01-2.24-.57.48z" fill="#f08060"/><path d="m179.22 55.08 9.72 3.61.57-.48-9.72-3.61z" fill="#ee6f48"/><path d="m177.53 44.9 1.69 10.18.57-.48-1.69-10.18zm11.41 13.79.57-.48-1.7-10.18-.57.48z" fill="#d2502e"/><path d="m187.24 48.51.57-.48-9.71-3.61-.57.48z" fill="#f08060"/><path d="m179.78 47.51 1.05 6.3 6.01 2.23-1.05-6.3z" fill="#ee6f48"/><path d="m186.84 56.04.57-.47-1.05-6.3-.57.47z" fill="#d2502e"/><path d="m185.79 49.74.57-.47-6.01-2.24-.57.48z" fill="#f08060"/><path d="m177.76 56.29 9.72 3.62.57-.48-9.72-3.61z" fill="#ee6f48"/><path d="m176.07 46.11 1.69 10.18.57-.47-1.69-10.18zm11.41 13.8.57-.48-1.7-10.18-.57.48z" fill="#d2502e"/><path d="m185.78 49.73.57-.48-9.71-3.61-.57.47z" fill="#f08060"/><path d="m178.19 48.79 1.05 6.3 6.01 2.23-1.05-6.3z" fill="#ee6f48"/><path d="m185.25 57.32.57-.47-1.05-6.3-.57.47z" fill="#d2502e"/><path d="m184.2 51.02.57-.47-6.01-2.24-.57.48z" fill="#f08060"/><path d="m189.51 58.21-1.69-10.18.88-.73 1.7 10.17zm-1.46 1.22-1.69-10.18.88-.74 1.7 10.18zm2.92-2.42-1.7-10.19.89-.73 1.7 10.18zm1.45-1.22-1.69-10.18.88-.73 1.7 10.17zm1.45-1.2-1.69-10.2.88-.69 1.7 10.15z" fill="#d2502e" opacity=".69"/><path d="m193.06 43.7-9.71-3.62-.88.7 9.71 3.61zm-1.45 1.17-9.71-3.61-.89.74 9.71 3.61zm-1.45 1.22-9.72-3.61-.88.73 9.72 3.61zm-1.45 1.21-9.72-3.61-.89.73 9.72 3.61zm-1.46 1.2-9.72-3.6-.89.74 9.71 3.61z" fill="#f4ab88" opacity=".81"/></g><g clip-path="url(#s)" opacity=".47"><path d="m145.06 51.12h64.91v7.57h-64.91z" fill="url(#t)" transform="matrix(.67571888 -.73715941 .73715941 .67571888 17.090378 148.660034)"/><path d="m153.89 59.57h64.91v7.57h-64.91z" fill="url(#u)" transform="matrix(.67571888 -.73715941 .73715941 .67571888 13.729441 157.909917)"/></g><path d="m176.047 34.991 16.345-2.806.153.89-16.345 2.807z" fill="#dbe8f1"/><circle cx="183.6" cy="92.54" fill="#dbe8f1" r=".8"/><circle cx="203.07" cy="89.16" fill="#dbe8f1" r=".8"/><circle cx="193.33" cy="90.85" fill="#dbe8f1" r="1.57"/><path d="m199.05 29.28a.63.63 0 0 1 .61.52l10.59 61.2a.62.62 0 0 1 -.5.72l-31.54 5.47h-.11a.61.61 0 0 1 -.61-.51l-10.6-61.17a.62.62 0 0 1 .51-.71l31.54-5.47h.11m0-.75h-.24l-31.54 5.42a1.37 1.37 0 0 0 -1.12 1.58l10.6 61.17a1.38 1.38 0 0 0 1.35 1.13.86.86 0 0 0 .23 0l31.55-5.46a1.37 1.37 0 0 0 1.12-1.59l-10.6-61.16a1.36 1.36 0 0 0 -1.34-1.14z" fill="#dbe8f1" opacity=".19"/><path d="m220.5 26.11-.82 2.26-2.25.83 2.26.82.83 2.25.81-2.25 2.26-.83-2.26-.82zm-131.98-26.11-.82 2.26-2.25.83 2.26.82.83 2.25.82-2.26 2.25-.83-2.26-.82-.82-2.25z" fill="#dbe8f1"/><path d="m163.47 72.45-.82 2.26-2.25.83 2.26.82.83 2.25.82-2.26 2.25-.83-2.26-.82z" fill="#dbe8f1" opacity=".41"/><path d="m95.58 110.22-.82 2.26-2.25.83 2.26.82.83 2.25.82-2.26 2.25-.83-2.26-.82-.82-2.25z" fill="#dbe8f1"/><path d="m141.23 108-1 2.87-2.86 1.05 2.86 1 1.05 2.85 1-2.86 2.86-1-2.86-1z" fill="#f36c3d" opacity=".71"/><path d="m218.38 52.32-1.52 4.2-4.19 1.54 4.19 1.53 1.55 4.19 1.52-4.2 4.19-1.58-4.2-1.53-1.54-4.19zm-196.31-3.52-1 2.86-2.86 1.05 2.86 1 1.06 2.86 1-2.86 2.85-1-2.86-1z" fill="#f36c3d"/><path d="m29.82 20.21-1.64 4.51-4.51 1.66 4.52 1.62 1.66 4.5 1.63-4.5 4.52-1.65-4.51-1.64-1.66-4.5z" fill="#766991"/><path d="m192 7-1.42 4-3.94 1.45 4 1.43 1.45 4 1.43-4 3.94-1.45-3.94-1.44zm-116 22.75-.78 2.14-2.14.78 2.14.78.78 2.14.78-2.14 2.13-.79-2.14-.77z" fill="#6d8091"/></svg>